<svg fill="none" height="40" viewBox="0 0 129 40" width="129" xmlns="http://www.w3.org/2000/svg"><path d="m.0158039 19.7309c0 3.1245.0000028 6.249-.01128516 9.3735-.01843274.1789.01982266.359.10935226.515.089529.156.22581.2799.389581.3542 5.475418 3.141 10.944048 6.2904 16.405948 9.448.0919.0684.203.1062.3176.1082.1146.0021.2269-.0318.3213-.0969 5.4889-3.1772 10.9824-6.3439 16.4804-9.5.1374-.0617.2523-.1645.3288-.2944.0764-.1298.1106-.2801.0979-.4303-.0136-6.2941-.0136-12.5891 0-18.8847.0129-.1568-.0238-.3137-.1048-.44857s-.2023-.24093-.3467-.30324c-5.4604-3.13504-10.9155-6.27911-16.3653-9.432216-.116-.0847597-.256-.1304408-.3996-.1304408-.1437 0-.2836.0456811-.3996.1304408-5.4739 3.169656-10.95461 6.330286-16.442062 9.481886-.130277.06015-.238081.16012-.3078702.2855-.0697891.12534-.09794967.26964-.08042947.41214.01128797 3.129.00676557 6.2716.00676557 9.4119z" fill="#fdfdfd"/><path d="m.0158004 19.7309c0-3.1404 0-6.2807 0-9.421-.01752016-.1424.0106542-.2867.0804433-.41207.0697893-.12538.1775933-.22535.3078703-.2855 5.488956-3.14859 10.969686-6.30922 16.442086-9.481889.116-.0847599.2559-.130441.3995-.130441.1437 0 .2837.0456811.3996.130441 5.4499 3.160629 10.905 6.304699 16.3653 9.432219.1445.06231.2658.16837.3468.30323.081.13491.1176.29171.1048.44851-.0136 6.2957-.0136 12.5906 0 18.8848.0127.1501-.0215.3005-.098.4303-.0764.1298-.1913.2327-.3287.2944-5.4995 3.1606-10.993 6.3273-16.4805 9.4999-.0943.0651-.2066.099-.3212.097s-.2257-.0399-.3177-.1083c-5.4633-3.1606-10.93198-6.3099-16.405886-9.448-.163771-.0743-.300052-.1982-.389581-.3541-.0895294-.156-.12777112-.3362-.1093384-.5151.0135456-3.1154.0045058-6.2399.0045058-9.3644zm9.2403396 6.7727c-.0006-.2694-.10776-.5277-.29809-.7185-.19033-.1907-.44837-.2984-.71783-.2996-.26883.0057-.52505.1151-.71518.3052-.19014.1901-.2995.4464-.30525.7152.00356.2689.11288.5255.30428.7144.19141.1889.44949.2948.7184.2947.13324.001.26533-.0248.3885-.0756s.23493-.1258.32874-.2204c.09379-.0947.16775-.2071.21749-.3307s.07427-.256.07216-.3892zm0-4.6325c.0006-.2691-.10556-.5274-.29517-.7183s-.4472-.2987-.71624-.2999c-.26944 0-.52783.107-.71836.2975-.19052.1906-.29756.449-.29756.7184s.10704.5278.29756.7184c.19053.1905.44892.2975.71836.2975.26805-.0024.52425-.1108.71252-.3017.18828-.1908.29331-.4484.29211-.7165zm-1.00915-5.644c-.26702-.0019-.52419.1007-.71655.2859-.19237.1852-.30467.4383-.31291.7052.00456.2688.11278.5255.30208.7165.18929.191.44503.3015.71383.3084.26926.0006.52779-.1055.71903-.295.19124-.1896.29962-.4471.30141-.7164.00242-.1333-.02191-.2658-.07154-.3895-.04963-.1238-.12356-.2363-.21743-.331-.09386-.0947-.20575-.1697-.32906-.2204s-.25553-.0762-.38886-.075zm9.25611 6.6621c.2009-.0045.3959-.0685.5604-.1838s.2911-.2768.3638-.4641.0883-.392.0447-.5881c-.0435-.1961-.1443-.3749-.2895-.5138-.1452-.1388-.3283-.2316-.5261-.2664-.1979-.0348-.4017-.0102-.5855.0708-.1839.081-.3396.2146-.4475.3841s-.1632.3671-.1588.568c.0118.2673.1273.5194.3221.7028s.4534.2836.7209.2792zm-2.3501 0c.2694.0048.5297-.0976.7236-.2848.1939-.1871.3055-.4436.3103-.713.0048-.2695-.0976-.5298-.2847-.7237-.1872-.1939-.4437-.3055-.7131-.3103-.1334-.0024-.266.0215-.3902.0704-.1241.0489-.2374.1217-.3335.2144-.096.0926-.1728.2033-.2261.3256-.0532.1224-.0818.254-.0842.3874-.0024.1335.0216.266.0704.3902.0489.1242.1217.2375.2144.3335s.2033.1728.3257.2261c.1223.0532.254.0819.3874.0842zm-4.6371 0c.1334.0043.2663-.0177.3912-.0648s.2393-.1183.3367-.2096.1758-.2009.2309-.3225c.055-.1216.0855-.2528.0898-.3862.0043-.1335-.0177-.2664-.0648-.3913s-.1183-.2393-.2096-.3367-.2009-.1758-.3225-.2308c-.1216-.0551-.2528-.0856-.3863-.0899-.2694-.0087-.5313.09-.72791.2744-.19666.1844-.31202.4393-.3207.7088-.00868.2694.09002.5313.2744.7279.18438.1967.43931.312.70881.3207zm13.8977-2.0318c-.2694 0-.5278.107-.7184.2975-.1905.1906-.2975.449-.2975.7184s.107.5278.2975.7184c.1906.1905.449.2975.7184.2975s.5278-.107.7184-.2975c.1905-.1906.2975-.449.2975-.7184s-.107-.5278-.2975-.7184c-.1906-.1905-.449-.2975-.7184-.2975zm-12.8525-1.3252c-.0063-.2694-.1193-.5254-.3143-.7114-.195-.1861-.4558-.2871-.7253-.2808-.2694.0063-.52533.1193-.71141.3143-.18607.195-.28708.4559-.28079.7253.00942.2691.12389.5238.31886.7094.19494.1857.45494.2876.72414.2839.1347-.0026.2675-.032.3907-.0865s.2343-.1331.3267-.231c.0925-.098.1646-.2134.2119-.3395.0474-.1261.0692-.2604.0641-.395zm4.9126-2.2937c.0013.2017.0626.3985.176.5654s.2738.2963.4609.3718.3924.0938.5899.0524c.1974-.0413.3782-.1404.5192-.2846.1411-.1443.2361-.3272.2731-.5255.0369-.1984.0141-.4032-.0656-.5886-.0797-.1853-.2126-.3428-.382-.4525-.1693-.1096-.3674-.1665-.5692-.1634-.2686.0036-.5249.1135-.7128.3055-.1878.1921-.292.4508-.2895.7195zm10.2449 12.5883c.2687.0055.5286-.0958.7228-.2815.1942-.1858.3069-.4409.3134-.7096.0023-.1334-.0218-.2659-.0708-.39-.049-.1242-.122-.2374-.2147-.3333-.0928-.0959-.2036-.1726-.326-.2257s-.254-.0816-.3874-.0838c-.1335-.0022-.266.0218-.3901.0708s-.2373.122-.3333.2148c-.0959.0927-.1726.2035-.2257.3259s-.0816.2541-.0838.3875c-.0033.1326.0198.2646.0681.3882.0482.1236.1205.2364.2128.3318.0922.0954.2025.1715.3244.2239.122.0523.2531.0798.3858.081zm-11.534-15.9273c-.1333-.0033-.266.0201-.3901.0689s-.2371.122-.3324.2152c-.0954.0933-.1711.2046-.2226.3276-.0516.123-.078.2551-.0776.3884-.0018.2691.1027.528.2909.7204.1881.1924.4446.3026.7137.3068.2689-.0039.5261-.1111.7181-.2994.1921-.1882.3044-.4432.3136-.712-.0011-.2687-.1083-.526-.298-.7162-.1898-.1902-.447-.2979-.7156-.2997zm-.0203 15.9296c.1333.0027.2658-.021.3899-.0696.1242-.0486.2376-.1212.3336-.2137.0961-.0925.1729-.203.2262-.3252.0533-.1223.0819-.2538.0842-.3871-.0049-.2688-.1124-.5256-.3004-.7178s-.4423-.3053-.711-.3162c-.2695 0-.5281.1061-.72.2954-.1918.1893-.3014.4465-.3049.716-.0027.133.0212.2652.0705.3888.0492.1236.1227.2361.2162.3308.0934.0947.2049.1697.3278.2206s.2548.0766.3879.0757zm10.5542-14.9001c.0041.2685.1132.5247.304.7137.1907.1891.4479.2959.7164.2977.2694-.0065.5256-.1176.7144-.3098.1888-.1921.2953-.4503.297-.7197-.0053-.2687-.1164-.5244-.3092-.7116-.1927-.1873-.4515-.291-.7202-.2885-.2643.003-.5167.1102-.7023.2983-.1856.1882-.2894.442-.2888.7063zm-12.8683 14.9001c.1331.0027.2655-.0213.3892-.0705s.2363-.1227.3312-.2161.1701-.2049.2213-.3278c.0511-.1229.0771-.2549.0765-.388-.0017-.2688-.108-.5264-.2964-.7182-.1884-.1917-.444-.3026-.7128-.309-.269.0051-.5257.1138-.7166.3035-.191.1897-.3014.4456-.3083.7147.0009.1338.0282.2661.0804.3893.0521.1232.1281.2349.2235.3287.0955.0937.2085.1677.3326.2177.1241.0499.2569.0749.3907.0734zm13.8571-2.3163c.2691.0036.5288-.0992.7224-.2861.1937-.1869.3057-.4427.3116-.7118-.0005-.2693-.1064-.5278-.295-.7202-.1885-.1924-.4448-.3033-.7141-.3092-.2687-.0018-.5271.1028-.7188.2911s-.301.4448-.3039.7135c-.0024.1335.0219.2662.0714.3902.0496.124.1235.2368.2173.3319s.2056.1704.329.2216c.1233.0513.2556.0773.3892.0767zm-2.3027 0c.2692.0007.5281-.1036.7216-.2908s.3064-.4425.3146-.7116c-.0078-.2688-.1177-.5245-.3072-.7153-.1895-.1907-.4445-.3023-.7132-.3119-.1335-.0009-.2659.0246-.3895.075s-.2361.1247-.3309.2187-.1701.2057-.2216.3289-.0782.2553-.0785.3888c-.0027.134.0216.2671.0715.3915.05.1243.1245.2373.2192.3322.0946.0949.2074.1696.3317.2198.1242.0503.2573.0749.3913.0724zm-6.9354 0c.2689.0024.5279-.1017.7203-.2894.1924-.1878.3028-.4441.307-.713-.0219-.2532-.1374-.489-.3239-.6616-.1866-.1725-.4308-.2692-.6849-.2711-.254-.002-.4997.0909-.689.2605-.1892.1695-.3083.4036-.3341.6564 0 .269.1067.5271.2968.7176.19.1904.4478.2977.7169.2983zm5.9307-10.3127c-.0042.1335.0181.2665.0654.3914.0474.1249.119.2392.2106.3363.0917.0972.2017.1752.3236.2297.122.0545.2535.0844.387.0879.269-.0002.5278-.1031.7233-.2878.1956-.1846.3132-.4371.3288-.7056.0007-.2686-.1034-.5269-.2902-.72-.1867-.1931-.4414-.3057-.71-.314-.1323-.0048-.2642.0169-.3881.0638-.1238.0469-.237.1181-.3329.2094s-.1726.2008-.2256.3222c-.0529.1213-.0811.252-.0828.3844zm2.3096.0248c.0011.2684.1074.5255.2961.7163s.4447.3.713.3042c.2687-.004.5254-.1118.7164-.3007s.3016-.4444.3086-.713c-.0024-.2693-.1109-.5268-.302-.7165-.191-.1898-.4492-.2966-.7185-.2972-.2646.0024-.5176.1094-.7037.2976s-.2902.4424-.2896.7071zm-10.543 10.2901c.2694-.0017.5274-.1087.7189-.2981s.3013-.4462.3061-.7155c-.0086-.2685-.1195-.5236-.3101-.7129s-.4464-.2985-.7149-.3053c-.1334.0003-.2654.0269-.3886.0782-.1231.0513-.235.1264-.3291.2209-.0941.0946-.1687.2068-.2195.3301-.0508.1234-.0768.2556-.0765.389-.0009.134.025.2669.0762.3907.0513.1239.1267.2363.222.3305.0953.0943.2085.1685.333.2183.1244.0499.2575.0743.3915.0719zm-1.0137-7.9557c.0009.1336.0283.2657.0805.3886.0522.123.1282.2344.2237.3278.0956.0934.2086.167.3327.2164.1241.0495.2568.0739.3904.0718.2681-.0081.5228-.1195.7108-.3109.1881-.1914.2949-.448.2983-.7163-.0059-.2693-.1178-.5253-.3114-.7126-.1936-.1872-.4533-.2906-.7226-.2875-.1325.0009-.2635.028-.3854.08-.1219.0519-.2322.1275-.3246.2225-.0925.0949-.1651.2073-.2137.3305-.0487.1233-.0723.255-.0696.3874zm3.3413-1.0205c-.1329-.0033-.2652.0197-.3892.0677-.1239.048-.2372.12-.3333.2119-.0961.0918-.1731.2018-.2265.3235-.0535.1218-.0824.2529-.085.3858-.0114.1387.0058.2783.0505.4102.0447.1318.1159.2531.2093.3563s.207.1862.3337.2438c.1268.0576.264.0886.4032.091.1392.0025.2774-.0236.4061-.0766.1287-.0531.2451-.132.3422-.2318.097-.0998.1725-.2185.2218-.3487.0494-.1301.0715-.269.065-.4081.0049-.2673-.0965-.5256-.2819-.7181-.1854-.1926-.4396-.3038-.7069-.3091zm0 6.6532c.1334.0003.2655-.0258.3888-.0768.1232-.051.2352-.1258.3294-.2203.0942-.0944.1688-.2065.2195-.3299s.0765-.2556.0759-.3889c-.0188-.2577-.1349-.4986-.3247-.6739s-.4391-.2718-.6975-.2701-.5064.1016-.6939.2794c-.1874.1778-.3003.4202-.3157.6781.003.2669.1116.5217.3019.7087.1904.187.4472.291.714.2892zm-3.33-1.043c-.0057.1334.0153.2666.0619.3917.0465.1251.1177.2397.2092.3369s.2016.1751.3237.2291.2538.083.3873.0853c.2686.0086.5298-.0889.7271-.2715.1973-.1825.3149-.4353.3272-.7038.0067-.2715-.0933-.5347-.2786-.7331-.1854-.1985-.4412-.3162-.7125-.328-.1341-.0045-.2677.0177-.3931.0652-.1255.0475-.2402.1194-.3377.2116-.0974.0922-.1756.2028-.2299.3254-.0544.1226-.0839.2548-.0868.3889zm-3.6008 1.0385c.1331 0 .265-.0265.3878-.078s.2341-.127.3274-.222.1668-.2076.2161-.3313.0735-.256.0711-.3892c-.003-.2686-.1123-.5252-.304-.7134-.1916-.1883-.4501-.293-.7187-.2912-.2693.0047-.526.115-.71473.3072-.18875.1921-.29449.4507-.29445.72.00146.1333.02932.265.08197.3874.05265.1225.12902.2333.22474.3261s.20887.1657.33297.2145c.124.0488.2565.0725.3898.0699zm4.5919-8.974c-.1334.0012-.2652.0289-.3877.0817-.1225.0527-.2332.1294-.3258.2254-.0925.0961-.1649.2097-.2129.3341-.0481.1245-.0708.2572-.0669.3905.0026.1335.0315.2651.085.3873s.1306.2328.2268.3252c.0963.0925.2098.1651.3341.2136.1242.0486.2569.0722.3903.0695.2682-.0116.5216-.1258.7078-.3192.1862-.1933.2908-.4508.2923-.7192-.0094-.2685-.1241-.5225-.3193-.7071-.1951-.1846-.4551-.285-.7237-.2795zm8.256-1.3139c-.0027.1336.0213.2665.0706.3907s.1228.2374.2164.3329c.0936.0954.2052.1712.3285.223.1232.0517.2555.0784.3892.0783.2688-.0066.525-.1153.7166-.304s.3043-.4432.3151-.7119c-.0047-.2689-.1142-.5254-.3053-.7147-.191-.1893-.4485-.2966-.7174-.2989-.1333-.0028-.2658.0214-.3896.0709-.1237.0496-.2363.1235-.3309.2175-.0946.0939-.1693.206-.2196.3294-.0504.1234-.0754.2558-.0736.3891zm2.3186-2.2937c.0081.2688.1197.524.3115.7125.1919.1884.4491.2955.7179.2989.2685-.0149.5212-.131.7073-.325.186-.1941.2915-.4515.2951-.7203-.0045-.2694-.1158-.526-.3095-.7134-.1937-.1873-.4539-.29-.7233-.2856-.2695.0045-.5261.1159-.7134.3096-.1874.1937-.2901.4539-.2856.7233zm-2.3073-.0226c-.0007.2696.104.5288.2916.7224.1877.1936.4435.3062.713.3139.2675-.0155.5201-.1282.7101-.317.1901-.1888.3045-.4407.3217-.708-.0018-.269-.1103-.5264-.3016-.7156s-.4498-.2947-.7189-.2935c-.1343-.0076-.2688.0128-.3949.0599s-.241.1198-.3376.2136c-.0965.0938-.1726.2066-.2233.3313-.0507.1246-.075.2585-.0714.393zm-15.19584 1.3162c-.26869.0047-.52476.1148-.71309.3065-.18832.1917-.29383.4497-.29378.7184.00932.2692.12238.5243.31553.712.19314.1876.45139.2933.72069.2949.26946-.0053.52587-.117.71324-.3108.18738-.1937.29052-.4537.28689-.7232-.00086-.1334-.02831-.2654-.08075-.3881-.05243-.1228-.1288-.2338-.22464-.3267s-.20925-.1658-.33357-.2144-.25708-.0719-.39052-.0686zm1.0227 5.6598c.00239-.1332-.02167-.2655-.07077-.3893-.04911-.1238-.12228-.2367-.2153-.332s-.20403-.1712-.3266-.2234c-.12257-.0521-.25425-.0794-.38744-.0803-.2689-.0048-.5288.0969-.72295.283-.19414.1861-.30678.4415-.31329.7104.00158.2687.10704.5264.29429.7191s.44179.3055.71034.3149c.26948.003.52922-.1007.72251-.2885.1933-.1878.30446-.4445.30921-.7139zm3.63024 7.9535c.1332-.0021.2646-.0305.3868-.0837.1221-.0533.2324-.1302.3246-.2263.0922-.0962.1644-.2097.2124-.334s.0708-.2568.0672-.39c-.0082-.2687-.1212-.5235-.3149-.71-.1936-.1864-.4525-.2898-.7213-.2879-.2685.0111-.5223.1256-.7083.3196s-.2898.4524-.2895.7212c.0088.2703.1241.5261.3207.7117.1967.1857.4587.2861.729.2794zm12.8299-7.9558c.02.2577.1374.4982.3282.6726s.4408.2696.6993.2665c.2585-.0032.5061-.1045.6926-.2835s.2979-.4223.3117-.6804c-.0021-.1334-.0305-.2651-.0836-.3875-.0532-.1223-.1301-.233-.2262-.3255-.0961-.0926-.2095-.1652-.3338-.2137s-.257-.0719-.3904-.0689c-.1324.0008-.2633.0281-.385.08-.1218.052-.232.1276-.3243.2226-.0922.095-.1646.2074-.213.3306s-.0718.2549-.0688.3872zm-14.1506 6.9421c-.0006-.2691-.1075-.527-.2973-.7177s-.4473-.2987-.7164-.3005c-.269.0047-.5256.1138-.71558.3042-.19001.1904-.29852.4473-.30258.7163 0 .2694.10704.5278.29756.7183.1905.1905.4489.2976.7184.2976.2694 0 .5278-.1071.7183-.2976s.2976-.4489.2976-.7183zm12.8615-1.3116c.2691-.0006.5274-.1065.7194-.2951.192-.1887.3025-.445.3078-.7141-.0086-.2686-.12-.5237-.3111-.7128-.1911-.189-.4474-.2975-.7161-.3031-.1334-.0003-.2655.0259-.3887.0771-.1231.0511-.2349.1262-.3288.221-.0939.0947-.168.2071-.2181.3308-.05.1236-.0751.2559-.0736.3893-.0021.133.0226.2651.0725.3883.05.1233.1243.2353.2185.3292.0941.094.2063.168.3296.2177.1234.0497.2556.0741.3886.0717zm-15.17104-.9956c.00241-.2693-.10194-.5286-.29022-.7211s-.44516-.3026-.71441-.3062c-.26791.0034-.5242.1099-.71553.2975-.19134.1875-.30298.4417-.31167.7094-.0006.2691.10555.5274.29516.7183.18961.1908.44719.2987.71623.2999.13293.003.26513-.0206.38881-.0694.12369-.0488.23637-.1218.33143-.2148.09507-.0929.17059-.2039.22214-.3265s.07809-.2542.07806-.3871zm1.29814-10.2947c-.1332-.0012-.2653.024-.3888.074s-.23582.1239-.33064.2175c-.09482.0935-.17022.2049-.22187.3277-.05166.1227-.07856.2545-.07915.3877 0 .2695.10704.5279.29756.7184.1905.1905.4489.2975.7184.2975.2694 0 .5278-.107.7183-.2975s.2976-.4489.2976-.7184c0-.1319-.026-.2625-.0765-.3844s-.1245-.2327-.2178-.326-.204-.1672-.3259-.2177-.2525-.0765-.3844-.0765zm1.0114 3.348c.0054-.2694-.0965-.5299-.2832-.7243-.1867-.1943-.443-.3065-.7124-.3119-.2695-.0054-.53.0965-.72434.2832-.19433.1867-.30653.443-.31192.7124.00038.2687.1047.5269.29111.7205.18645.1936.44045.3075.70905.318.2698.0048.5306-.0974.7253-.2845.1946-.187.3072-.4435.3132-.7134zm-1.0092 12.5816c.1331.0012.265-.0241.3882-.0746.1231-.0504.2349-.1249.3289-.2191s.1682-.2062.2184-.3294c.0501-.1232.0752-.2552.0737-.3883-.003-.2687-.1109-.5257-.3007-.7159-.1898-.1903-.4465-.2987-.7152-.3023-.2692.007-.5253.1178-.71465.3093-.18935.1914-.29732.4487-.30131.7179.00117.1336.0288.2657.08128.3885.05249.1229.1288.2341.22452.3273s.20896.1665.33316.2157.2569.0733.3905.0709zm5.9104-14.9001c-.012.1415.0056.284.0518.4184.0463.1343.12.2575.2166.3617.0965.1042.2138.187.3442.2433s.2712.0847.4132.0834c.1421-.0012.2823-.0321.4117-.0907s.2452-.1435.3399-.2494.1662-.2304.2101-.3655c.0438-.1352.0589-.278.0443-.4193-.026-.2527-.1454-.4867-.3348-.6561s-.4352-.262-.6893-.2598c-.2541.0023-.4982.0993-.6846.272s-.3016.4088-.3231.662zm10.2811 10.2608c.2689-.003.5258-.1118.7151-.3027.1892-.191.2957-.4489.2963-.7178-.0093-.2685-.1222-.5231-.3149-.7103-.1927-.1873-.4504-.2927-.7191-.2943-.2671.0083-.5203.1209-.7052.3139-.1849.1929-.2867.4506-.2836.7178.0012.1316.0283.2618.0797.3829.0515.1212.1263.231.2202.3233.094.0922.2051.165.3272.2143s.2526.074.3843.0729zm-13.8797-13.9249c.1327.0071.2655-.0129.3902-.0587.1248-.0458.2389-.1164.3356-.2076.0967-.0911.1738-.201.2268-.3229.053-.1218.0807-.2532.0814-.3861.0182-.143.006-.2882-.0359-.42615-.0418-.13795-.1124-.26549-.207-.37426s-.2112-.19631-.342-.25687-.273-.09278-.4171-.09454c-.1442-.00176-.287.02697-.4193.08432-.1323.05734-.2509.142-.3482.24843-.0972.10642-.1709.2322-.2161.36909-.0452.13688-.061.28178-.0462.42518-.0041.1323.0189.2639.0676.387.0487.123.122.2347.2154.3284.0935.0937.2051.1672.328.2162s.2546.0723.3868.0685zm10.5497 8.2809c-.0024.1333.0218.2658.071.3898.0493.1239.1226.2369.2159.3322.0933.0954.2045.1713.3274.2233.1228.052.2547.079.3881.0796.2688-.0049.5256-.1124.7178-.3004s.3053-.4423.3162-.711c-.0041-.2689-.1131-.5256-.3037-.7154s-.4478-.2976-.7168-.3005c-.1331-.0033-.2656.0202-.3895.0692s-.2366.1225-.3314.2161c-.0949.0936-.1699.2053-.2205.3285-.0507.1232-.076.2554-.0745.3886zm-12.8412-7.9513c-.1331-.0045-.2658.0176-.3903.0649-.1245.0474-.23832.1191-.3348.211-.09648.0918-.17368.202-.2271.324-.05341.122-.08196.2535-.08398.3867.00412.2686.10977.5257.29573.7197.18595.1939.43845.3102.70665.3256.2685-.0045.5251-.1119.7167-.3002.1916-.1882.3035-.4428.3128-.7112.0058-.1338-.0157-.2674-.0633-.3926-.0475-.1251-.1201-.2393-.2133-.3355-.0932-.0961-.2051-.1722-.3287-.2237-.1236-.0514-.2565-.0771-.3904-.0754zm2.2757 0c-.133.0006-.2646.0275-.3871.0793-.1225.0517-.2336.1271-.3268.222s-.1667.2073-.2162.3307c-.0495.1235-.0741.2555-.0723.3885.0141.2683.1289.5214.3214.7089.1924.1874.4485.2955.7171.3025.268-.0144.5203-.1307.7054-.325s.2889-.452.2902-.7203c.0004-.1338-.0263-.2664-.0784-.3896-.0522-.1232-.1288-.2346-.2253-.3274-.0964-.0929-.2106-.1652-.3357-.2127s-.2586-.0691-.3923-.0636zm4.6619 0c-.1328-.0051-.2653.0163-.3898.063s-.2384.1177-.3351.209c-.0967.0912-.1742.2008-.228.3223-.0539.1216-.083.2526-.0856.3855-.0119.1386.0047.2781.0488.41s.1147.2533.2076.3569c.0928.1035.2058.1869.3321.2451s.2632.0899.4022.0931.2772-.022.4061-.0742c.1289-.0523.2457-.1303.3433-.2294.0975-.0991.1737-.2172.2239-.3468.0502-.1297.0733-.2683.0679-.4073.0045-.1336-.0178-.2667-.0656-.3915s-.1201-.2388-.2127-.3352-.2036-.1733-.3264-.226c-.1229-.0528-.255-.0804-.3887-.0812zm-.0384 18.2414c.1332.003.2656-.0203.3897-.0685.1242-.0482.2376-.1203.3338-.2124.0962-.092.1734-.2021.2271-.324.0536-.1218.0828-.2531.0857-.3862.0153-.1411.0011-.2839-.0419-.4193-.043-.1353-.1137-.2601-.2077-.3666-.094-.1064-.2092-.192-.3381-.2514-.129-.0594-.2689-.0912-.4109-.0934-.1419-.0022-.2828.0252-.4136.0806-.1307.0553-.2485.1373-.3457.2408-.0973.1034-.1719.226-.219.3599-.0472.1339-.0659.2762-.0549.4178-.0019.2665.1018.5229.2883.7132s.4408.2991.7072.3027zm9.2562-8.9807c-.201.004-.3962.0676-.561.1827s-.2918.2765-.3649.4637c-.073.1873-.0889.392-.0456.5883.0433.1962.1439.3753.289.5144s.3282.232.5262.267c.1979.035.4018.0105.5858-.0704.184-.081.3399-.2146.4479-.3842.108-.1695.1632-.3672.1588-.5682-.0065-.2714-.1205-.5292-.3169-.7167s-.4591-.2894-.7306-.2834zm-18.46035-9.2562c-.13306-.0039-.26557.0187-.38983.0665-.12425.0477-.23779.1197-.33399.2117-.09621.092-.17316.2022-.22641.3242-.05324.122-.08171.2534-.08375.3865.00629.2687.11327.5252.29974.7188.18648.1936.43886.3101.70715.3264.26881-.0072.52478-.1165.71597-.3056s.30327-.4438.31349-.7125c.00497-.1351-.01776-.2698-.06677-.3958-.04901-.1259-.12327-.2405-.21821-.3368-.09494-.0962-.20857-.172-.33388-.2226-.12532-.0507-.25966-.0752-.39479-.072zm5.90815.9979c.0032.2692.1098.5268.2976.7197.1878.1928.4425.3061.7115.3165.2682-.012.5222-.1238.7122-.3134s.3023-.4434.315-.7115c0-.1331-.0263-.2649-.0774-.3878-.0512-.1228-.1261-.2344-.2205-.3282-.0945-.0938-.2065-.168-.3297-.2183-.1233-.0503-.2552-.0757-.3883-.0749-.1333-.0061-.2665.0149-.3914.0618-.125.0468-.2391.1185-.3356.2107-.0964.0923-.1732.2031-.2255.3258-.0524.1228-.0794.2549-.0792.3883zm-3.6325-1.3229c.1326.0086.2656-.01.3907-.0548.1252-.0447.2398-.1146.3369-.2053.0971-.0908.1746-.2005.2277-.3223.053-.1218.0806-.2533.0809-.3861.0039-.1328-.0187-.265-.0665-.38884-.0478-.12387-.1199-.23696-.212-.33263s-.2024-.17199-.3243-.2245c-.122-.0525-.2532-.08014-.386-.08129-.133-.00482-.2656.01678-.3902.06353-.1246.04674-.23867.11772-.33565.20883-.09699.09111-.17495.20055-.22939.32198-.05443.12142-.08426.25242-.08776.38542-.00239.1309.02128.261.06964.3826.04837.1217.12045.2324.21207.326.09161.0935.20089.1678.32149.2186.1207.0509.2502.0772.3811.0775zm-1.29134-.9979c.0015-.1329-.02349-.2647-.0735-.38777-.05001-.12309-.12404-.23498-.21778-.32914s-.2053-.1687-.32817-.21926c-.12286-.05057-.25458-.07614-.38744-.07523-.26868-.00363-.52784.09934-.72078.28635-.19294.18702-.30393.44285-.30868.71155-.00125.1328.02423.2645.0749.3873s.12551.2341.22007.3274.20691.1667.33037.2157.25551.0727.38831.0697c.13289.0061.26564-.0149.39011-.0619.12447-.0469.23805-.1187.33379-.2111.09574-.0923.17162-.2033.223-.326s.07717-.2546.0758-.3876zm15.18454.9866c.1326 0 .2639-.0262.3864-.0771.1224-.0509.2336-.1255.3272-.2194.0936-.094.1676-.2055.218-.3282.0503-.1227.0759-.2541.0753-.3867-.0106-.26852-.1259-.52216-.3213-.70659-.1954-.18442-.4553-.28494-.7239-.28001-.133-.00038-.2647.02605-.3871.07771-.1225.05167-.2334.1275-.3259.22297-.0925.09546-.1648.20861-.2126.33267-.0478.12405-.0701.25645-.0655.38935-.002.1338.024.2666.0762.3899s.1295.2343.227.3261c.0974.0917.213.1622.3392.2068s.2603.0625.3938.0525zm-9.2787-1.998c-.1331-.00034-.265.02598-.3878.0774-.1229.05142-.2341.1269-.3273.22199-.0932.0951-.1665.20789-.2154.33172-.049.12379-.0726.25619-.0696.38929-.0005.133.0262.2646.0784.3869s.1289.2326.2253.3241c.0964.0916.2106.1625.3354.2083s.2576.0657.3904.0583c.1325.0012.264-.024.3867-.0742s.2342-.1243.3279-.2181c.0938-.0937.1679-.2052.2181-.3279.0501-.1227.0754-.2542.0742-.3867-.0071-.26729-.1191-.52106-.3117-.70649-.1926-.18544-.4505-.28767-.7178-.28461zm6.9624 1.998c.1299.0027.2589-.0204.3798-.0678s.2312-.1183.3246-.2085.168-.198.2195-.3172c.0516-.1192.079-.2474.0808-.3773.0013-.1334-.0237-.2658-.0735-.38955-.0498-.12376-.1235-.2365-.2169-.33178-.1886-.19243-.446-.30205-.7154-.30474-.2694-.0027-.5289.10175-.7213.29037-.1925.18861-.3021.44595-.3048.7154-.002.1338.0235.2666.0748.3901.0514.1236.1276.2353.2239.3282s.2107.165.336.212c.1253.0469.2589.0676.3925.0608z" fill="#00c567"/><g fill="#f6fcfa"><path d="m9.24937 26.4991c.00151.1334-.02369.2658-.07412.3894-.05044.1235-.12507.2357-.21953.33-.09447.0942-.20683.1686-.33049.2188-.12365.0501-.25609.075-.38952.0732-.2689 0-.527-.1059-.71841-.2947-.19141-.1889-.30073-.4456-.30429-.7144.00576-.2689.11512-.5251.30525-.7152.19014-.1902.44636-.2995.71519-.3053.26946.0012.52751.1089.71784.2997.19033.1907.29748.449.29808.7185z"/><path d="m9.24937 21.8665c-.0003.1335-.02697.2657-.07846.3888-.0515.1232-.12681.235-.22163.329-.09481.0939-.20726.1682-.33088.2186s-.25598.0759-.38947.075c-.26944 0-.52783-.107-.71835-.2975-.19053-.1905-.29757-.4489-.29757-.7184 0-.2694.10704-.5278.29757-.7183.19052-.1906.44891-.2976.71835-.2976.13417-.0006.26713.0254.39121.0765.12407.051.2368.1262.33168.221.09487.0949.17001.2077.22108.3317.05107.1241.07706.2571.07647.3912z"/><path d="m8.24699 16.2158c.13352-.0015.26599.0237.38957.0743.12357.0506.23573.1255.32983.2203.0941.0947.16823.2074.218.3313s.07418.2565.07175.39c-.00179.2693-.11017.5268-.30141.7164-.19124.1895-.44977.2956-.71903.295-.2688-.0069-.52454-.1174-.71383-.3084s-.29752-.4477-.30208-.7165c.00533-.2685.11605-.5241.30824-.7117.19219-.1875.45043-.2919.71896-.2907z"/><path d="m17.5077 22.8779c-.2008.0036-.3982-.0525-.5671-.1611-.1689-.1085-.3019-.2647-.3821-.4488-.0803-.1841-.1041-.3879-.0686-.5855.0355-.1977.1288-.3804.2681-.525.1393-.1447.3184-.2448.5145-.2877.1962-.043.4007-.0268.5877.0464s.3481.2002.4629.3649c.1149.1647.1784.3598.1824.5606.0037.2693-.0991.5292-.2859.7232-.1869.194-.4427.3065-.7119.313z"/><path d="m15.1575 22.8779c-.2694-.0047-.5259-.1164-.7131-.3103-.1871-.1939-.2895-.4542-.2848-.7236.0048-.2695.1165-.526.3104-.7131.1939-.1872.4542-.2896.7236-.2848.1334.0024.2651.031.3874.0842.1224.0533.233.1301.3257.2261.0926.096.1655.2094.2144.3335.0488.1242.0728.2568.0704.3902s-.031.265-.0843.3874c-.0532.1223-.13.233-.226.3257-.0961.0926-.2094.1655-.3335.2143-.1242.0489-.2568.0728-.3902.0704z"/><path d="m10.5204 22.8779c-.1334-.0043-.2647-.0348-.3863-.0898-.1216-.0551-.23119-.1335-.32249-.2309-.0913-.0973-.16251-.2118-.2096-.3367-.04708-.1249-.0691-.2578-.0648-.3912s.03483-.2647.08985-.3863c.05503-.1216.13347-.2312.23085-.3225.09737-.0913.21179-.1625.33669-.2096s.2578-.0691.3913-.0648c.2694.0087.5243.124.7087.3207s.2831.4585.2744.728c-.0086.2694-.124.5243-.3207.7087-.1966.1844-.4585.2831-.7279.2744z"/><path d="m24.4181 20.8461c.2695 0 .5279.107.7184.2975.1905.1906.2976.449.2976.7184 0 .2695-.1071.5278-.2976.7184-.1905.1905-.4489.2975-.7184.2975-.2694 0-.5278-.107-.7183-.2975-.1906-.1906-.2976-.4489-.2976-.7184 0-.2694.107-.5278.2976-.7184.1905-.1905.4489-.2975.7183-.2975z"/><path d="m11.5657 19.5209c.0036.1333-.0192.266-.0669.3905-.0478.1245-.1197.2384-.2115.3351-.0919.0967-.2019.1743-.3238.2284-.1219.054-.2533.0835-.3866.0868-.2693.0037-.5292-.0983-.7242-.2839-.19497-.1857-.30943-.4404-.31885-.7095-.00629-.2694.09471-.5303.28079-.7253.18606-.195.44196-.308.71146-.3143.2694-.0063.5303.0947.7253.2808.1949.1861.308.442.3143.7114z"/><path d="m16.4736 17.2385c.0138-.2582.1252-.5014.3117-.6804s.4341-.2804.6926-.2835c.2585-.0032.5085.0921.6993.2665.1909.1744.3082.4148.3283.6725-.0138.2582-.1252.5014-.3117.6804s-.4341.2804-.6926.2835c-.2585.0032-.5085-.0921-.6993-.2665-.1909-.1744-.3082-.4148-.3283-.6725z"/><path d="m26.7141 29.8268c-.1323-.002-.2629-.0303-.3842-.0832s-.2309-.1293-.3225-.2248c-.0915-.0956-.1632-.2083-.2109-.3318-.0476-.1234-.0703-.2551-.0667-.3874.0022-.1334.0307-.2651.0838-.3875s.1298-.2331.2257-.3259.2092-.1657.3333-.2147.2566-.0731.3901-.0709c.1334.0022.265.0307.3874.0838s.2332.1298.3259.2257c.0928.0959.1658.2092.2148.3333s.0731.2567.0708.3901c-.0029.1342-.0324.2665-.0867.3892-.0544.1227-.1325.2335-.2299.3259-.0974.0923-.2121.1645-.3376.2122-.1254.0478-.2591.0702-.3933.066z"/><path d="m15.1846 13.8995c.2687.0018.5258.1095.7156.2997.1897.1902.2969.4475.298.7162-.0092.2688-.1215.5238-.3136.7121-.192.1882-.4491.2954-.7181.2993-.269-.0041-.5256-.1144-.7137-.3068-.1882-.1924-.2927-.4513-.2909-.7204-.0004-.1333.026-.2654.0776-.3884.0516-.1229.1272-.2343.2226-.3276.0953-.0932.2084-.1664.3324-.2152.1241-.0488.2568-.0722.3901-.0689z"/><path d="m15.1642 29.8268c-.1332.001-.2653-.0248-.3883-.0759-.1231-.051-.2347-.1262-.3282-.2212-.0934-.0949-.1669-.2077-.216-.3315-.0491-.1239-.0728-.2564-.0698-.3896.0035-.2694.1131-.5267.3049-.716.1919-.1893.4505-.2954.72-.2954.2687.0109.523.124.711.3162s.2955.449.3004.7178c-.0023.1333-.0309.2649-.0842.3871s-.1301.2328-.2262.3253c-.096.0924-.2094.1651-.3336.2137-.1241.0486-.2566.0722-.39.0695z"/><path d="m25.7298 14.9154c-.0021-.133.0223-.265.0717-.3884.0495-.1235.123-.2359.2162-.3306.0933-.0948.2045-.17.3272-.2214.1226-.0513.2543-.0778.3873-.0778.2687-.0024.5275.1013.7203.2885.1927.1873.3038.443.3091.7116-.0017.2694-.1082.5276-.297.7198s-.445.3033-.7144.3097c-.2685-.0017-.5257-.1086-.7164-.2976-.1908-.1891-.2999-.4453-.304-.7138z"/><path d="m12.8615 29.8268c-.2687 0-.5264-.1064-.7168-.2959-.1904-.1896-.2979-.4468-.2991-.7155.0069-.269.1173-.525.3082-.7146.191-.1897.4477-.2984.7167-.3036.2688.0065.5244.1173.7128.3091s.2947.4493.2964.7181c.0006.1332-.0254.2651-.0766.3881-.0511.1229-.1263.2344-.2212.3278s-.2075.1668-.3312.2161c-.1238.0492-.2561.0731-.3892.0704z"/><path d="m26.7164 27.5105c-.133-.0006-.2645-.0276-.387-.0795-.1224-.0519-.2333-.1276-.3262-.2228-.0928-.0952-.1658-.2079-.2147-.3316s-.0727-.2558-.07-.3888c.003-.2686.1123-.5252.3039-.7134.1917-.1883.4501-.293.7188-.2912.2693.0059.5257.1169.7142.3093.1886.1923.2944.4508.295.7202-.006.269-.118.5249-.3116.7118-.1937.1868-.4533.2897-.7224.286z"/><path d="m24.4136 27.5105c-.1334.0013-.2658-.0243-.3891-.0752s-.2352-.1261-.3289-.2211c-.0937-.0949-.1674-.2078-.2166-.3318-.0493-.124-.0731-.2566-.0701-.39.0003-.1335.027-.2657.0785-.3888.0515-.1232.1268-.235.2216-.329.0948-.0939.2073-.1683.3309-.2187s.256-.0758.3895-.075c.2687.0097.5237.1212.7132.312.1895.1907.2994.4465.3072.7153-.0082.2691-.1211.5243-.3146.7115s-.4524.2915-.7216.2908z"/><path d="m17.4783 27.5105c-.2691-.0012-.5267-.1091-.7163-.2999-.1896-.1909-.2957-.4492-.2951-.7183.0257-.2527.1449-.4868.3341-.6564s.4349-.2625.689-.2605.4983.0987.6848.2712c.1866.1725.3021.4084.3239.6615-.0042.2677-.1136.523-.3046.7106-.1909.1876-.4481.2924-.7158.2918z"/><path d="m23.409 17.1978c.0013-.1334.0296-.2651.083-.3873.0534-.1223.1308-.2325.2277-.3241.0969-.0917.2113-.1629.3364-.2094.125-.0465.2581-.0673.3914-.0612.2685.0082.5232.1208.7099.3139.1868.1931.2909.4514.2902.7201-.0156.2685-.1332.5209-.3288.7056-.1955.1846-.4543.2876-.7233.2877-.1335-.0035-.265-.0334-.387-.0879-.1219-.0545-.2319-.1325-.3236-.2296-.0916-.0972-.1632-.2115-.2106-.3364-.0473-.1248-.0696-.2579-.0653-.3914z"/><path d="m25.7298 17.2227c-.0006-.133.0253-.2647.0761-.3876s.1255-.2344.2199-.3282c.0943-.0937.2063-.1677.3296-.2177.1232-.0499.2551-.0749.3881-.0734.2693.0006.5274.1073.7185.2971.191.1898.2995.4473.3019.7165-.007.2686-.1175.5241-.3086.7131-.191.1889-.4477.2966-.7164.3006-.2683-.0041-.5242-.1133-.7129-.3041s-.295-.448-.2962-.7163z"/><path d="m15.1756 27.5128c-.1335.0012-.2658-.0242-.3894-.0747-.1235-.0506-.2357-.1252-.3301-.2195-.0944-.0944-.169-.2066-.2195-.3302-.0505-.1235-.0759-.2558-.0747-.3893-.0003-.1334.0257-.2656.0765-.3889.0507-.1234.1253-.2356.2195-.3301.0941-.0946.2059-.1696.3291-.221.1231-.0513.2552-.0779.3886-.0782.2685.0068.5243.116.7148.3054.1906.1893.3015.4443.3101.7128-.0047.2693-.1146.5261-.3061.7155s-.4495.2964-.7188.2982z"/><path d="m14.1619 19.557c-.003-.1334.0207-.2661.0697-.3902.0491-.1241.1225-.2371.2159-.3324s.2049-.171.328-.2225.2553-.0779.3887-.0776c.2694-.003.529.1003.7226.2876.1936.1872.3055.4433.3114.7125-.0033.2683-.1102.5249-.2982.7163-.1881.1914-.4427.3028-.7109.311-.1336.002-.2663-.0224-.3904-.0718-.1241-.0495-.2371-.123-.3326-.2165-.0955-.0934-.1716-.2048-.2238-.3277-.0522-.123-.0795-.2551-.0804-.3887z"/><path d="m17.5031 18.5366c.1333.0009.2651.0282.3878.0802.1227.0521.2338.128.327.2233s.1666.2081.216.332c.0493.1238.0737.2562.0716.3894.0064.1391-.0157.278-.065.4082-.0494.1302-.1249.2488-.2219.3487-.097.0998-.2135.1787-.3422.2317-.1287.0531-.2669.0792-.4061.0767s-.2764-.0335-.4031-.0911c-.1268-.0576-.2404-.1405-.3338-.2437-.0934-.1033-.1646-.2246-.2093-.3564s-.0619-.2714-.0505-.4102c.0027-.1325.0314-.2632.0846-.3846.0531-.1215.1297-.2312.2253-.3231.0956-.0918.2084-.1639.3318-.2121.1235-.0483.2553-.0717.3878-.069z"/><path d="m17.4918 25.1875c-.1331.0017-.2652-.0228-.3888-.0723-.1235-.0495-.2361-.1229-.3311-.2161-.0951-.0932-.1708-.2042-.2227-.3268-.052-.1225-.0792-.2541-.0801-.3872.0154-.2579.1283-.5003.3157-.6781.1875-.1778.4355-.2777.6939-.2794s.5077.0948.6975.2701.3059.4162.3247.6738c.0006.133-.025.2649-.0754.388-.0504.123-.1246.235-.2184.3293-.0937.0944-.2052.1693-.3279.2206-.1227.0512-.2544.0778-.3874.0781z"/><path d="m14.1619 24.1467c.0029-.1341.0324-.2663.0868-.3889s.1325-.2333.23-.3254c.0974-.0922.2122-.1642.3376-.2117s.2591-.0696.3931-.0651c.2689.0123.5225.1287.707.3247.1846.1959.2856.4559.2818.7251-.0123.2685-.1298.5213-.3271.7038s-.4585.28-.7272.2715c-.1327-.0024-.2636-.0311-.3851-.0845s-.2311-.1305-.3225-.2267c-.0914-.0963-.1628-.2098-.2099-.3338-.0471-.1241-.069-.2564-.0645-.389z"/><path d="m10.5633 25.1875c-.1333.0027-.2658-.0211-.3898-.0699-.1241-.0488-.23726-.1217-.33297-.2145-.09572-.0928-.1721-.2036-.22474-.326-.05265-.1225-.08051-.2542-.08198-.3875-.00004-.2693.1057-.5279.29445-.72.18874-.1922.44544-.3025.71474-.3072.2686-.0018.5271.1029.7187.2912.1917.1882.301.4448.3039.7134.0024.1332-.0217.2655-.071.3892s-.1228.2363-.2161.3313-.2046.1705-.3274.222-.2547.078-.3878.078z"/><path d="m15.1552 16.2158c.269-.0055.5293.0952.7245.2803s.3097.4396.3185.7085c-.0015.2684-.1061.5259-.2923.7193-.1862.1933-.4396.3076-.7078.3192-.1334.0027-.2661-.0209-.3904-.0695-.1242-.0486-.2377-.1212-.334-.2136-.0962-.0925-.1733-.203-.2268-.3252-.0535-.1223-.0824-.2539-.085-.3873-.0039-.1333.0188-.2661.0669-.3905.048-.1244.1204-.238.2129-.3341s.2033-.1727.3258-.2255c.1225-.0527.2543-.0805.3877-.0816z"/><path d="m23.4112 14.9019c-.0015-.1331.0237-.2652.0742-.3884s.1253-.2349.2199-.3287c.0945-.0937.2069-.1674.3306-.2168.1236-.0494.2559-.0735.389-.0708.2689.0024.5264.1096.7174.299.191.1893.3006.4458.3053.7147-.0108.2687-.1235.5232-.3151.7119s-.4478.2974-.7167.304c-.1336 0-.2659-.0266-.3892-.0783-.1232-.0518-.2349-.1276-.3284-.2231-.0936-.0954-.1671-.2086-.2164-.3328-.0493-.1243-.0733-.2571-.0706-.3907z"/><path d="m25.7298 12.6059c-.0045-.2694.0983-.5296.2856-.7233.1874-.1937.444-.3051.7134-.3096.2694-.0044.5296.0983.7233.2856.1937.1874.3051.444.3095.7134-.0035.2688-.109.5262-.2951.7203-.186.194-.4388.3101-.7072.325-.2689-.0034-.5261-.1105-.7179-.2989-.1918-.1885-.3035-.4437-.3116-.7125z"/><path d="m23.4112 12.5833c-.0035-.1335.0205-.2664.0705-.3902.0501-.1239.1251-.2361.2204-.3297.0953-.0937.2088-.1666.3336-.2145.1247-.0478.258-.0694.3914-.0634.2691-.0012.5276.1043.7189.2935s.2998.4466.3016.7156c-.0172.2673-.1316.5192-.3217.708-.19.1888-.4426.3015-.71.317-.2695-.0077-.5254-.1203-.7131-.3139-.1876-.1936-.2923-.4528-.2916-.7224z"/><path d="m8.22668 13.8995c.13306-.0033.26545.0199.38948.0682s.23722.1208.333.2132.17225.2029.22495.3252c.0527.1222.08059.2537.08204.3868.00484.2702-.09777.5314-.28527.7261-.18751.1947-.4446.307-.71485.3123-.26856-.0015-.52616-.1066-.71918-.2933-.19303-.1867-.30659-.4407-.31705-.709-.00123-.2695.10375-.5287.2922-.7214s.4452-.3033.71468-.3081z"/><path d="m9.24937 19.5593c-.00476.2694-.11592.5261-.30921.7139-.1933.1878-.45303.2915-.72252.2885-.26854-.0094-.52308-.1222-.71033-.3149s-.29271-.4504-.2943-.7191c.00652-.2689.11915-.5242.3133-.7104.19415-.1861.45404-.2878.72294-.283.13319.0009.26488.0282.38745.0803.12257.0522.23358.1281.32659.2234.09302.0953.1662.2082.21531.332.0491.1238.07316.2561.07077.3893z"/><path d="m12.8863 27.5128c-.2691.0049-.5294-.0963-.7246-.2818-.1952-.1854-.3095-.4402-.3184-.7093-.0002-.2688.1035-.5272.2895-.7212.186-.1939.4399-.3085.7084-.3195.2688-.0019.5277.1014.7213.2879.1937.1864.3067.4412.3149.7099.0036.1332-.0192.2657-.0672.39s-.1202.2378-.2124.334c-.0922.0961-.2025.1731-.3247.2263-.1221.0532-.2536.0816-.3868.0837z"/><path d="m25.7163 19.557c-.0031-.1331.0206-.2655.0695-.3893.049-.1238.1222-.2366.2154-.3317s.2045-.1706.3273-.222.2547-.0778.3879-.0774c.1352-.0046.27.0181.3964.0666.1263.0485.2416.1219.3391.2158s.1751.2064.2283.3308c.0532.1245.0809.2583.0814.3937-.0137.2581-.1252.5013-.3117.6803s-.4341.2804-.6925.2836c-.2585.0031-.5085-.0921-.6994-.2665-.1908-.1744-.3081-.4149-.3282-.6726z"/><path d="m11.5656 26.4991c0 .2694-.107.5279-.2975.7184s-.4489.2975-.7184.2975c-.2694 0-.5278-.107-.71834-.2975-.19052-.1905-.29755-.449-.29755-.7184.00407-.269.11257-.5258.30258-.7163.19001-.1904.44661-.2995.71561-.3041.2694.0018.5273.1101.7172.3012.1899.1912.2965.4497.2964.7192z"/><path d="m24.4204 25.1874c-.133.0025-.2652-.0219-.3885-.0716-.1234-.0497-.2355-.1237-.3297-.2177-.0942-.0939-.1685-.2059-.2185-.3292-.0499-.1233-.0746-.2553-.0725-.3883-.0024-.134.022-.267.0716-.3914.0497-.1244.1237-.2377.2177-.3331.094-.0955.206-.1712.3296-.2228.1237-.0516.2563-.078.3903-.0777.2687.0057.525.1142.7161.3032s.3025.4441.3111.7127c-.0036.2703-.1133.5284-.3055.7184-.1922.1901-.4514.297-.7217.2975z"/><path d="m9.24937 24.1919c.00004.1333-.02663.2653-.07846.3882-.05184.1228-.12778.2341-.22332.3271-.09555.093-.20877.1659-.33298.2145-.12421.0485-.25688.0716-.39019.068-.26826-.0024-.5247-.1108-.71333-.3015-.18864-.1908-.29416-.4484-.29356-.7167.00874-.2685.121-.5233.3133-.711.1923-.1876.44973-.2937.71842-.2959.26847.0048.52419.1154.71149.3078.18731.1924.29105.451.28863.7195z"/><path d="m10.5542 13.8995c.1331-.0009.265.0246.3882.0751.1231.0505.2349.125.329.2191s.1686.206.2191.3291.076.255.0751.3881c0 .2694-.107.5278-.2975.7183-.1905.1906-.4489.2976-.7184.2976-.2694 0-.5278-.107-.71834-.2976-.19052-.1905-.29755-.4489-.29755-.7183 0-.1336.02645-.2659.07784-.3892s.1267-.2352.22157-.3292c.09488-.094.20748-.1683.33118-.2186.1238-.0503.2563-.0756.3898-.0744z"/><path d="m11.5656 17.2452c-.0059.2687-.1175.5242-.3107.711-.1932.1869-.4523.2899-.721.2869-.2685-.0105-.5226-.1244-.70899-.318-.18641-.1936-.29072-.4518-.2911-.7205.00539-.2694.11759-.5257.31192-.7124.19437-.1867.45487-.2886.72427-.2832.2695.0054.5257.1176.7125.3119.1867.1944.2885.4549.2831.7243z"/><path d="m10.5565 29.8268c-.133.0015-.265-.0233-.3884-.0729-.1235-.0495-.23588-.123-.33088-.2161s-.17069-.2041-.22276-.3265c-.05206-.1224-.07947-.2538-.08065-.3869.00399-.2692.11196-.5265.30131-.7179.18938-.1915.44538-.3023.71458-.3093.2688.0036.5255.112.7153.3023.1898.1902.2977.4472.3006.7159.0016.1331-.0235.2651-.0737.3883-.0501.1233-.1244.2352-.2183.3294-.094.0942-.2058.1687-.329.2192-.1231.0504-.2551.0757-.3881.0745z"/><path d="m16.4736 14.9154c.0216-.2532.1368-.4892.3231-.662.1864-.1727.4305-.2697.6846-.2719.2541-.0023.4999.0903.6893.2597.1895.1694.3089.4034.3349.6561.0145.1414-.0006.2841-.0444.4193-.0438.1351-.1154.2596-.2101.3655s-.2104.1908-.3398.2494c-.1295.0586-.2697.0895-.4117.0907-.1421.0013-.2828-.0271-.4133-.0834-.1304-.0562-.2476-.1391-.3442-.2433s-.1703-.2274-.2165-.3617-.0639-.2768-.0519-.4184z"/><path d="m26.7412 25.1875c-.1317.0011-.2622-.0236-.3843-.0729s-.2332-.1221-.3272-.2143c-.0939-.0923-.1687-.2021-.2202-.3233-.0514-.1211-.0785-.2513-.0797-.3829-.0025-.2687.1012-.5275.2885-.7203.1872-.1927.4429-.3038.7116-.3092.2687.0016.5264.1071.7191.2943.1927.1873.3055.4418.3149.7104-.0012.2704-.1095.5294-.3012.7202-.1916.1908-.4511.298-.7215.298z"/><path d="m12.8615 11.2626c-.1332.0054-.266-.0168-.3903-.065-.1242-.0483-.2372-.1216-.3319-.2154-.0946-.0939-.169-.2062-.2183-.33-.0494-.1238-.0727-.2565-.0686-.3897-.0147-.1434.001-.28829.0462-.42518.0453-.13688.1189-.26267.2162-.36909.0972-.10642.2159-.19108.3481-.24843.1323-.05734.2752-.08608.4193-.08432.1442.00176.2863.03399.4172.09455.1308.06056.2473.1481.3419.25687.0947.10876.1652.2363.2071.37425.0418.13795.054.28315.0358.42625-.0008.1318-.0281.2622-.0804.3833s-.1284.2304-.2239.3214c-.0954.091-.2082.1619-.3316.2084-.1235.0465-.255.0676-.3868.0621z"/><path d="m23.4112 19.5435c-.0015-.1333.0238-.2654.0745-.3886.0506-.1232.1256-.235.2205-.3285.0948-.0936.2075-.1671.3314-.2161s.2564-.0726.3896-.0692c.2689.0029.5261.1107.7167.3005s.2996.4465.3037.7154c-.0109.2686-.124.523-.3162.711s-.449.2954-.7178.3004c-.1334-.0006-.2653-.0276-.3881-.0796-.1229-.052-.2341-.1279-.3274-.2233-.0933-.0953-.1666-.2083-.2159-.3322-.0492-.124-.0734-.2565-.071-.3898z"/><path d="m10.57 11.5854c.1333-.0016.2656.0239.3888.0749.1231.0511.2346.1266.3277.222s.1659.2088.2139.3331c.0479.1244.0701.2573.0652.3905-.0092.2684-.1211.523-.3127.7112-.1916.1883-.4482.2957-.7167.3002-.2682-.0154-.5207-.1317-.70666-.3256-.18595-.1939-.2916-.4511-.29573-.7197.00203-.1332.03057-.2646.08399-.3867.05341-.122.13062-.2322.22709-.324.09648-.0919.21031-.1636.33481-.2109.1245-.0474.2572-.0695.3903-.065z"/><path d="m12.8457 11.5855c.1332-.0055.2661.0159.3907.063.1247.0471.2386.1188.3349.2109s.1731.2027.2257.3251c.0526.1225.08.2543.0804.3875-.0013.2684-.1051.526-.2902.7203-.1851.1944-.4374.3106-.7053.325-.2686-.007-.5247-.115-.7172-.3025s-.3072-.4406-.3213-.7089c-.0018-.133.0227-.265.0723-.3884.0495-.1235.123-.2359.2161-.3308.0932-.0948.2043-.1703.3268-.222.1226-.0517.2541-.0787.3871-.0792z"/><path d="m17.5076 11.5854c.1335.0003.2655.0273.3884.0793.1229.0521.2341.1283.3271.224s.1659.2091.2144.3334c.0485.1244.0716.2571.068.3906.0054.1389-.0177.2775-.0679.4072s-.1264.2477-.2239.3468c-.0976.0991-.2144.1772-.3433.2294-.1288.0522-.267.0775-.4061.0742-.139-.0032-.2759-.0349-.4022-.0931s-.2393-.1416-.3321-.2451c-.0929-.1036-.1635-.225-.2076-.3569s-.0607-.2714-.0488-.41c.0027-.1325.0316-.2631.0852-.3844.0535-.1212.1306-.2306.2269-.3218.0962-.0911.2095-.1623.3335-.2092.1239-.047.256-.0689.3884-.0644z"/><path d="m17.4693 29.8268c-.1329-.0018-.2642-.0298-.3862-.0824-.1221-.0526-.2326-.1289-.3251-.2243-.0925-.0955-.1652-.2082-.214-.3319-.0488-.1236-.0727-.2557-.0703-.3886-.011-.1415.0077-.2838.0549-.4178.0472-.1339.1218-.2565.219-.3599.0973-.1035.215-.1855.3458-.2408.1307-.0553.2716-.0828.4136-.0806.1419.0022.2818.0341.4108.0934.129.0594.2441.145.3381.2515.094.1064.1648.2312.2077.3666.043.1353.0573.2781.0419.4192-.0023.1335-.031.2653-.0844.3876-.0534.1224-.1305.233-.2268.3256-.0963.0925-.2099.1651-.3343.2135-.1244.0485-.2572.0719-.3907.0689z"/><path d="m26.7141 20.8461c.1334-.0022.2659.0219.3901.0709.1241.049.2373.1219.3332.2147s.1726.2035.2257.3259.0816.2541.0838.3875c.0023.1334-.0218.266-.0708.3901s-.122.2373-.2147.3332c-.0928.0959-.2035.1726-.326.2257-.1224.0531-.254.0816-.3874.0839-.2695.0044-.5297-.0983-.7234-.2856-.1937-.1874-.305-.444-.3095-.7134-.0045-.2695.0982-.5297.2856-.7234.1873-.1937.444-.305.7134-.3095z"/><path d="m8.25377 11.5855c.13321-.0016.26536.0237.38857.0744s.23495.1257.32851.2205c.09357.0948.16706.2075.21608.3314.04901.1239.07256.2564.06921.3896-.01022.2687-.1223.5234-.31349.7125s-.44718.2984-.71599.3056c-.26829-.0163-.52066-.1328-.70713-.3264-.18648-.1936-.29345-.4501-.29974-.7188.00203-.1331.0305-.2645.08375-.3865.05324-.122.1302-.2322.2264-.3242.09621-.092.20974-.164.334-.2117.12426-.0478.25677-.0704.38983-.0664z"/><path d="m14.1619 12.5833c-.0016-.1334.0238-.2657.0748-.389s.1265-.235.2219-.3282c.0954-.0933.2087-.1663.3331-.2145s.2573-.0707.3906-.0661c.1331-.0009.2651.0245.3883.0748s.2352.1245.3297.2183c.0944.0938.1693.2054.2205.3282.0511.1229.0774.2547.0774.3878-.0126.2681-.125.5219-.315.7115s-.444.3014-.7122.3134c-.269-.0104-.5237-.1237-.7115-.3165-.1878-.1929-.2944-.4505-.2976-.7197z"/><path d="m10.5294 11.2604c-.1328.0013-.2645-.0243-.3872-.0752-.1227-.0508-.23389-.1259-.32687-.2208-.09297-.0949-.16582-.2076-.21419-.3313-.04838-.1237-.07127-.2559-.06732-.3886.0035-.1331.03333-.26408.08776-.38551.05444-.12142.1324-.23085.22939-.32196s.21103-.1621.33563-.20885c.1246-.04674.2572-.06833.3902-.06351.1328.00114.264.02878.386.08129s.2322.12882.3243.22449.1642.20875.212.33263c.0478.12392.0705.25602.0666.38882-.0004.1329-.0279.2643-.081.3861-.0531.1219-.1306.2315-.2277.3223-.097.0907-.2117.1606-.3368.2054-.1252.0447-.2582.0633-.3908.0547z"/><path d="m9.24935 10.2738c.00137.133-.02442.2649-.0758.3876s-.12727.2337-.22301.326c-.09573.0924-.20931.1642-.33378.2111-.12448.047-.25722.068-.39011.0619-.1328.003-.26485-.0207-.38831-.0697s-.23581-.1224-.33037-.2157-.1694-.2046-.22007-.3274-.07615-.2545-.0749-.3873c.00475-.26871.11574-.52454.30868-.71156.19294-.18701.4521-.28997.72078-.28635.13286-.00091.26457.02467.38744.07523s.23443.1251.32817.21926.16777.20605.21778.32915c.05001.12307.075.25487.0735.38777z"/><path d="m24.4407 11.2604c-.133.009-.2663-.0096-.3917-.0546-.1254-.0451-.2401-.1157-.3369-.2074-.0967-.0916-.1734-.2023-.2252-.3251s-.0775-.255-.0757-.3882c-.0045-.1329.0178-.2653.0656-.38934.0478-.12406.1201-.2372.2126-.33267s.2033-.1713.3258-.22296c.1225-.05167.2542-.0781.3871-.07772.2687-.00493.5285.09559.7239.28002.1954.18442.3108.43807.3214.70657.0006.1326-.025.264-.0754.3867-.0503.1227-.1244.2342-.2179.3282-.0936.094-.2048.1685-.3272.2194-.1225.0509-.2538.0771-.3864.0771z"/><path d="m15.162 9.2624c.2685-.00485.5281.09658.7222.2822.194.18563.3069.44042.314.7089.0012.1326-.024.264-.0742.3867-.0501.1227-.1243.2342-.218.328-.0937.0937-.2052.1678-.3279.218s-.2542.0754-.3868.0742c-.1327.0074-.2656-.0125-.3904-.0583s-.2389-.1167-.3353-.2083c-.0964-.0915-.1731-.2018-.2253-.3241-.0523-.1222-.0789-.2539-.0784-.3869-.003-.1331.0206-.2655.0696-.38929.0489-.12383.1221-.23662.2153-.33171s.2045-.17057.3273-.22199c.1229-.05142.2547-.07774.3879-.07741z"/><path d="m22.1177 11.2604c-.1333.0062-.2664-.015-.3912-.0622s-.2386-.1195-.3344-.2123c-.0958-.0929-.1716-.2043-.2227-.3276-.0511-.1232-.0764-.2556-.0744-.389.0027-.26944.1123-.52677.3047-.71539s.4519-.29306.7213-.29037c.2695.00269.5268.11231.7154.30474s.2931.45192.2904.72132c-.0018.1303-.0293.2588-.0811.3783-.0519.1195-.1269.2276-.2207.3179-.0939.0903-.2047.161-.3262.2082-.1214.0471-.2509.0697-.3811.0664z"/></g><path d="m38.0201 13.5654h6.152v2.3163h-3.8537v2.2124h3.8537v2.314h-3.8537v5.565h-2.2983z" fill="#24282a"/><path d="m48.8656 19.8031c0 2.524 1.9009 4.1991 4.0953 4.1991 2.2575 0 4.0456-1.8489 4.0456-4.2149 0-2.2824-1.7113-4.2691-4.0795-4.2691-2.2283 0-4.0637 1.727-4.0637 4.2894zm10.5249 0c-.0034.8476-.1738 1.6863-.5013 2.468-.3275.7818-.8058 1.4915-1.4076 2.0884-.6017.5969-1.3152 1.0695-2.0996 1.3907s-1.6243.4848-2.4719.4814c-.8477-.0034-1.6863-.1737-2.4681-.5013-.7818-.3275-1.4914-.8058-2.0883-1.4075-.597-.6018-1.0695-1.3152-1.3908-2.0996-.3212-.7844-.4848-1.6244-.4813-2.472.0034-.8476.1737-1.6863.5012-2.4681.3275-.7817.8058-1.4914 1.4076-2.0883.6017-.597 1.3152-1.0695 2.0996-1.3907.7844-.3213 1.6244-.4848 2.472-.4814s1.6862.1737 2.468.5012 1.4914.8058 2.0884 1.4076c.5969.6018 1.0695 1.3152 1.3907 2.0996s.4848 1.6244.4814 2.472z" fill="#24282a"/><path d="m62.3389 13.5654h2.3659v8.3982c0 1.3546.657 2.0318 1.8061 2.0318.6773 0 1.2801-.2754 1.5803-.7427.2596-.3973.2935-.9663.2935-1.6232v-8.0641h2.3682v7.9015c0 1.3546-.07 2.4021-1.0024 3.4903-.7946.9166-1.8309 1.3139-3.1809 1.3139-1.2778 0-2.2982-.3635-3.0748-1.174-1.0024-1.0385-1.1401-2.1605-1.1401-3.7679v-7.7638z" fill="#24282a"/><path d="m74.3064 13.5654h2.2644l5.3234 8.1567v-8.1567h2.3659v12.4077h-2.2801l-5.3054-8.1386v8.1386h-2.3682z" fill="#24282a"/><path d="m90.2969 15.8817v7.7751h1.2462c1.2959 0 2.2102-.1716 2.9349-.9504.5689-.6209.9166-1.6232.9166-2.8333 0-2.5917-1.4359-3.9914-4.1314-3.9914zm-2.3659-2.3163h2.989c2.1763 0 3.716.2596 5.0638 1.5803 1.1288 1.0881 1.8061 2.8152 1.8061 4.7861 0 2.1244-.7947 3.8875-2.1267 4.926-1.4155 1.104-2.8852 1.1288-4.7003 1.1288h-3.0229v-12.4167z" fill="#24282a"/><path d="m100.853 13.5654h6.775v2.3163h-4.406v2.2124h4.406v2.314h-4.406v3.2487h4.406v2.3163h-6.775z" fill="#24282a"/><path d="m113.169 18.4147h1.088c1.072 0 1.625-.4312 1.625-1.2778s-.571-1.262-1.693-1.262h-1.02zm-2.369-4.8561h2.888c1.58 0 2.677.1896 3.508 1.0024.33.3444.588.7507.761 1.1956.172.4448.254.9193.241 1.3961 0 1.6254-.812 2.7317-2.386 3.3006l2.935 5.513h-2.576l-2.781-5.2534h-.226v5.2534h-2.368v-12.4167z" fill="#24282a"/><path d="m122.407 22.3971c.571 1.0701 1.228 1.6232 2.056 1.6232.829 0 1.434-.5193 1.434-1.1582 0-.4515-.294-.9662-.795-1.3816-2.573-2.1628-4.102-3.3367-4.102-5.0977 0-1.7609 1.538-3.129 3.405-3.129 1.58 0 2.609.8466 3.594 1.9867l-1.761 1.5555c-.589-.8286-1.194-1.2778-1.867-1.2778-.623 0-1.055.3634-1.055.8646s.364.7947.725 1.1063c2.316 2.0318 4.165 3.0048 4.165 5.2692 0 2.0747-1.555 3.5263-3.801 3.5263-1.806 0-3.075-.8827-3.992-2.6955l1.987-1.192z" fill="#24282a"/></svg>